<?xml version="1.0" encoding="UTF-8"?>
<svg id="Layer_1" data-name="Layer 1" xmlns="http://www.w3.org/2000/svg" xmlns:xlink="http://www.w3.org/1999/xlink" viewBox="0 0 214.18 38.22">
  <defs>
    <style>
      .cls-1 {
        fill: #efce3e;
      }

      .cls-1, .cls-2, .cls-3 {
        fill-rule: evenodd;
      }

      .cls-2 {
        fill: #e6e2da;
      }

      .cls-4 {
        fill: #9d8061;
      }

      .cls-5 {
        clip-path: url(#clippath-1);
      }

      .cls-3 {
        fill: #322323;
      }

      .cls-6 {
        clip-rule: evenodd;
        fill: none;
      }
    </style>
    <clipPath id="clippath-1">
      <path class="cls-6" d="M200.01,16.35c1.58,1.8-1.38,5.07-2.97,3.31,0,0-.02-.01-.03-.01-.46.1-.91.02-1.34-.22,0,0-.01-.02-.01-.03,0,0,.01-.02.02-.02.35-.02.58-.17.68-.47,0-.01,0-.02,0-.03-1.55-1.8,2.08-4.32,3.66-2.52h0Z"/>
    </clipPath>
  </defs>
  <g>
    <path class="cls-4" d="M22.28,25c1.05.01,2.07.05,3.07.15.18.01.33.16.33.35s-.16.35-.35.35h-.04c-1.1-.1-2.24-.15-3.41-.16-1.51,2.66-2.3,4.51-2.3,5.47,0,.71.27.98.99.98,1.45,0,5.42-3.06,8.82-6.8.07-.07.15-.11.26-.11.19,0,.35.16.35.35,0,.1-.04.18-.1.24-2.54,2.77-7.25,7.02-9.34,7.02-1.1,0-1.7-.58-1.7-1.69s.75-2.87,2.19-5.47c-2.46.03-4.98.24-7.41.56-3.09,4.28-6.93,8.08-10.74,8.08-1.02,0-2.11-.54-2.83-1.41-.05-.07-.08-.15-.08-.23,0-.19.16-.35.35-.35.11,0,.2.05.27.12.6.73,1.47,1.17,2.28,1.17,3.41,0,6.91-3.33,9.79-7.23-2.8.39-5.45.94-7.71,1.51-.03.01-.07.01-.1.01-.19,0-.35-.16-.35-.35,0-.16.12-.31.27-.34,2.45-.63,5.37-1.21,8.46-1.63,1.78-2.5,3.29-5.18,4.36-7.31-2.52,2.03-5.87,3.29-8.74,3.29-.99,0-2.37-.08-2.37-.6,0-.19.16-.42.5-.42.26,0,.92.23,1.05.27,3.36.33,7.8-1.45,10.44-4.32.07-.07.15-.11.26-.11.19,0,.35.16.35.35,0,.05-.01.11-.04.15-.99,2.16-2.72,5.45-4.89,8.59,2.39-.3,4.87-.48,7.27-.49,1.03-1.81,2.38-3.93,4.01-6.42.76-1.17,1.05-1.59,1.36-1.92.16-.18.31-.3.49-.33.22-.03.42.12.46.29.11.45-.84,1.21-1.5,1.93-1.58,2.41-2.98,4.68-4.01,6.46Z"/>
    <path class="cls-4" d="M27.69,29c0-1.22.68-2.67,1.67-3.6.16-.16.3-.19.37-.11l.09.11c.29-1.03,1.07-1.74,2.05-1.74.88,0,1.43.6,1.43,1.56,0,1.02-.54,2.24-1.3,3.25.16.03.34.04.53.04,2.73,0,4.99-2.47,5.48-3.14.07-.08.16-.14.29-.14.19,0,.35.16.35.35,0,.08-.03.15-.07.22-.52.68-3,3.41-6.05,3.41-.38,0-.72-.05-1.03-.15-.76.82-1.66,1.39-2.42,1.39-.86,0-1.39-.56-1.39-1.45ZM30.83,28.74c-.72-.49-1.13-1.35-1.13-2.45,0-.08,0-.16.01-.24-.79.8-1.32,1.97-1.32,2.95,0,.52.22.75.68.75.53,0,1.17-.41,1.75-1.01ZM32.6,25.22c0-.58-.24-.86-.72-.86-.84,0-1.47.83-1.47,1.93,0,.9.31,1.55.9,1.9.73-.91,1.29-2.08,1.29-2.98Z"/>
    <path class="cls-4" d="M39.53,23.36c.16-.19.38-.31.6-.31.18,0,.35.11.35.3,0,.42-.69,1.06-1.28,1.65-1.01,1.37-1.82,2.62-2.34,3.56-.25.45-.16.69.33.23.25-.23.52-.5.84-.82,3.09-3.09,4.69-4.31,5.83-4.31.52,0,.82.34.82.9s-.3,1.44-.6,2.26c-.31.87-.61,1.73-.61,2.27,0,.33.08.41.33.41,1.55,0,4.01-2.11,6.32-4.16.05-.05.14-.1.23-.1.19,0,.35.16.35.35,0,.11-.04.2-.12.26-2.31,2.08-4.96,4.35-6.78,4.35-.65,0-1.03-.41-1.03-1.12s.35-1.65.65-2.52c.29-.82.56-1.55.56-2.01,0-.2-.12-.23-.26-.23-.75,0-2.26,1.22-5.19,4.15-1.28,1.26-2.01,1.98-2.43,1.98-.31,0-.5-.23-.5-.54,0-.73,1.2-2.8,2.98-5.23.39-.57.69-.99.97-1.32Z"/>
    <path class="cls-4" d="M48.73,28.4c0-2.08,2.38-4.75,4.27-4.75.76,0,1.24.42,1.24,1.1s-1.48,2.49-4.41,2.2c-.25.49-.39.99-.39,1.44,0,.72.31.99,1.2.99,1.79,0,5.87-2.07,8.13-4.08.05-.05.14-.08.23-.08.19,0,.35.16.35.35,0,.11-.04.2-.12.27-2.57,2.15-6.62,4.24-8.59,4.24-1.26,0-1.9-.56-1.9-1.7ZM53.53,24.76c0-.27-.15-.39-.53-.39-.91,0-2.03.86-2.76,1.92,2.3.11,3.29-1.1,3.29-1.52Z"/>
    <path class="cls-4" d="M52.22,36.53c0-1.51,1.65-2.17,4.04-3.13,1.1-.43,2.39-.95,3.83-1.66,1.01-1.65,1.93-3.37,2.64-4.79-1.69,1.9-3.33,3.1-4.46,3.1-.67,0-1.09-.48-1.11-1.18-.04-1.03.96-2.71,2.84-4.88.07-.08.16-.12.27-.12.19,0,.35.16.35.35,0,.1-.03.16-.08.23-1.75,2.01-2.71,3.59-2.68,4.39.01.34.15.5.41.5,1.29,0,3.82-2.32,5.97-5.53.07-.1.18-.16.3-.16.19,0,.35.16.35.35,0,.07-.01.12-.04.16-.22.41-1.66,3.7-3.62,7,2.42-1.28,5.21-3.09,8.18-5.85.07-.05.15-.1.25-.1.19,0,.35.16.35.35,0,.11-.04.19-.11.26-3.47,3.21-6.69,5.15-9.37,6.47-1.97,3.1-4.31,5.9-6.39,5.9-1.12,0-1.93-.71-1.93-1.69ZM59.39,32.86c-1.06.48-2.03.86-2.87,1.2-2.39.95-3.59,1.44-3.59,2.47,0,.57.49.98,1.22.98,1.65,0,3.54-2.09,5.23-4.65Z"/>
    <path class="cls-4" d="M68.07,28.4c0-2.08,2.38-4.75,4.27-4.75.76,0,1.24.42,1.24,1.1s-.45,1.48-1.06,1.89c-.05.03-.12.05-.19.05-.19,0-.35-.16-.35-.35,0-.12.07-.23.16-.3.41-.27.73-.83.73-1.29,0-.27-.15-.39-.53-.39-1.5,0-3.56,2.34-3.56,4.04,0,1.16.45,1.66,1.47,1.66,1.47,0,4.66-1.93,7.86-4.74.05-.05.14-.08.23-.08.19,0,.35.16.35.35,0,.11-.04.2-.12.27-2.37,2.07-6.25,4.91-8.32,4.91-1.43,0-2.18-.83-2.18-2.37Z"/>
    <path class="cls-4" d="M76.5,29c0-1.22.68-2.67,1.67-3.6.16-.16.3-.19.37-.11l.09.11c.29-1.03,1.07-1.74,2.05-1.74.88,0,1.43.6,1.43,1.56,0,1.02-.54,2.24-1.3,3.25.16.03.34.04.53.04,2.73,0,4.99-2.47,5.48-3.14.07-.08.16-.14.29-.14.19,0,.35.16.35.35,0,.08-.03.15-.07.22-.52.68-3,3.41-6.05,3.41-.38,0-.72-.05-1.03-.15-.76.82-1.66,1.39-2.42,1.39-.86,0-1.39-.56-1.39-1.45ZM79.64,28.74c-.72-.49-1.13-1.35-1.13-2.45,0-.08,0-.16.01-.24-.79.8-1.32,1.97-1.32,2.95,0,.52.22.75.68.75.53,0,1.17-.41,1.75-1.01ZM81.41,25.22c0-.58-.24-.86-.72-.86-.84,0-1.47.83-1.47,1.93,0,.9.31,1.55.9,1.9.73-.91,1.29-2.08,1.29-2.98Z"/>
    <path class="cls-4" d="M84.33,29.98c0-.72,2.43-4.75,4.06-6.78.05-.08.16-.14.27-.14.19,0,.35.16.35.35,0,.08-.03.16-.08.22-.83,1.05-2.04,2.91-2.9,4.35-.22.35-.09.53.31.12,3.18-3.18,4.69-4.45,5.6-4.45.45,0,.72.33.72.79,0,.63-.54,1.86-1.02,2.92-.18.38-.3.68-.41.92-.16.38-.05.5.29.22.37-.31.87-.76,1.52-1.39,1.96-1.82,2.73-2.43,3.28-2.43.5,0,.77.33.77.86,0,.57-.35,1.51-.65,2.3-.34.9-.43,1.22-.43,1.37,0,.25.03.27.3.27,1.55,0,4.01-2.11,6.32-4.16.05-.05.14-.1.23-.1.19,0,.35.16.35.35,0,.11-.04.2-.12.26-2.31,2.08-4.96,4.35-6.78,4.35-.67,0-1.01-.33-1.01-.98,0-.34.24-.98.49-1.62.29-.79.6-1.6.6-2.05,0-.08-.01-.15-.12-.15-.26,0-.96.58-2.73,2.24s-2.42,2.18-2.88,2.18c-.29,0-.46-.23-.46-.52,0-.41.41-1.32.8-2.22.72-1.6.97-2.28.97-2.58,0-.07,0-.14-.12-.14-.49,0-1.99,1.24-4.99,4.24-1.06,1.05-1.77,1.81-2.12,1.81-.24,0-.41-.19-.41-.43Z"/>
    <path class="cls-4" d="M99.18,32.01s.01-.09.03-.12c1.05-2.46,5.57-10.46,8.51-13.99.39-.48.75-.84,1.06-1.14.18-.16.41-.24.58-.24.22,0,.37.15.37.34,0,.42-.75.94-1.4,1.45-1.29,1.37-3.09,4.17-4.7,6.89-.5.87-1.48,2.39-1.6,2.64-.64,1.2.01.38.34-.01.58-.71,1.24-1.43,1.88-2.07,1.2-1.18,2.35-2.09,2.98-2.09s.98.38.98,1.05c0,2.33-2.92,5.71-4.96,5.71-.63,0-1.07-.41-1.24-1.02-.83,1.02-1.6,2.01-2.18,2.81-.07.1-.16.15-.29.15-.19,0-.35-.16-.35-.35ZM107.49,24.7c0-.29-.05-.34-.27-.34-.83,0-2.76,2.04-4.57,4.23-.09.65.15,1.11.58,1.11,1.64,0,4.25-3.09,4.25-5Z"/>
    <path class="cls-4" d="M130.27,25.7c-.16-.05-.3-.3-.25-.5.05-.19.19-.34.38-.46.38-.24.83-.49,1.56-.94,2.04-1.74,3.32-3.79,3.32-5.48,0-1.13-.76-1.79-2.07-1.79-6.16,0-12.86,9.53-12.86,14.15,0,1.86.84,2.75,2.58,2.75,4.92,0,11.99-7.16,12.97-8.21.07-.07.16-.11.26-.11.19,0,.35.16.35.35,0,.1-.04.18-.09.24-.98,1.05-8.27,8.43-13.49,8.43-2.15,0-3.29-1.21-3.29-3.45,0-4.84,7.06-14.86,13.57-14.86,1.69,0,2.77.98,2.77,2.5,0,1.98-1.47,4.31-3.81,6.21-.75.57-1.51,1.31-1.92,1.17Z"/>
    <path class="cls-4" d="M134.08,29c0-1.22.68-2.67,1.67-3.6.16-.16.3-.19.37-.11l.09.11c.29-1.03,1.07-1.74,2.05-1.74.88,0,1.43.6,1.43,1.56,0,1.02-.54,2.24-1.3,3.25.16.03.34.04.53.04,2.73,0,4.99-2.47,5.48-3.14.07-.08.16-.14.29-.14.19,0,.35.16.35.35,0,.08-.03.15-.07.22-.52.68-3,3.41-6.05,3.41-.38,0-.72-.05-1.03-.15-.76.82-1.66,1.39-2.42,1.39-.86,0-1.39-.56-1.39-1.45ZM137.22,28.74c-.72-.49-1.13-1.35-1.13-2.45,0-.08,0-.16.01-.24-.79.8-1.32,1.97-1.32,2.95,0,.52.22.75.68.75.53,0,1.17-.41,1.75-1.01ZM138.99,25.22c0-.58-.24-.86-.72-.86-.84,0-1.47.83-1.47,1.93,0,.9.31,1.55.9,1.9.73-.91,1.29-2.08,1.29-2.98Z"/>
    <path class="cls-4" d="M139.4,37.06c0-1.3.91-3.78,2.28-6.57-.07-.33-.12-.64-.19-.91-.01-.03-.01-.07-.01-.09,0-.19.15-.34.33-.35.2-.01.39-.03.6-.05,3.1-5.89,7.83-12.51,10.39-12.51.56,0,.94.35.94.88,0,1.74-3.77,5.42-8.59,8.52-.19.12-.3.19-.31.18h-.01c-.56.92-1.1,1.88-1.6,2.81,2.71-.45,5.55-1.67,8.09-3.11,2.53-4.21,5.64-7.97,7.71-7.97.56,0,.94.35.94.88,0,1.4-3.59,4.88-8.18,7.57-.54.92-1.06,1.86-1.54,2.8,4.08-.16,6.78-1.97,8.86-3.82.05-.05.14-.1.23-.1.19,0,.35.16.35.35,0,.11-.04.2-.12.26-2.17,1.96-5.18,3.96-9.68,4.01-.12.24-.23.48-.34.71.23.96.42,1.93.42,2.66,0,2.57-.69,4.17-1.89,4.17-.67,0-1.05-.45-1.05-1.16,0-1.24.69-3.34,1.78-5.71-.08-.34-.16-.68-.24-1.02-.07-.26.05-.39.31-.38.2.01.41.01.61.01.35-.72.75-1.44,1.16-2.18-2.52,1.36-5.25,2.42-7.82,2.77-.15.27-.27.53-.41.8.2,1.25.34,2.75.34,3.49,0,2.34-.99,4.17-2.3,4.17-.67,0-1.05-.45-1.05-1.16ZM142.03,34.05c0-.53-.07-1.43-.18-2.35-1.07,2.3-1.75,4.28-1.75,5.37,0,.34.1.45.34.45.84,0,1.59-1.56,1.59-3.47ZM153.02,17.5c0-.14-.05-.22-.23-.22-1.69,0-4.55,3.44-7.14,7.52,4.09-2.79,7.37-6,7.37-7.3ZM149.24,33.23c0-.43-.08-.99-.2-1.58-.82,1.9-1.32,3.58-1.32,4.6,0,.34.1.45.34.45.68,0,1.18-1.37,1.18-3.47ZM159.23,18.8c0-.12-.05-.2-.23-.2-1.67,0-4.23,2.95-6.49,6.53,3.85-2.43,6.72-5.22,6.72-6.32Z"/>
    <path class="cls-4" d="M157.63,28.4c0-2.08,2.38-4.75,4.27-4.75.76,0,1.24.42,1.24,1.1s-1.48,2.49-4.41,2.2c-.25.49-.39.99-.39,1.44,0,.72.31.99,1.2.99,1.79,0,5.87-2.07,8.13-4.08.05-.05.14-.08.23-.08.19,0,.35.16.35.35,0,.11-.04.2-.12.27-2.57,2.15-6.62,4.24-8.59,4.24-1.26,0-1.9-.56-1.9-1.7ZM162.43,24.76c0-.27-.15-.39-.53-.39-.91,0-2.03.86-2.76,1.92,2.3.11,3.29-1.1,3.29-1.52Z"/>
    <path class="cls-4" d="M166.5,28.4c0-2.08,2.38-4.75,4.27-4.75.76,0,1.24.42,1.24,1.1,0,1.33-2.13,2.68-4.73,3.1-.04.19-.07.37-.07.54,0,1.01.65,1.54,1.93,1.54,1.54,0,4.88-1.05,7.11-4.01.07-.1.18-.16.3-.16.19,0,.35.16.35.35,0,.07-.01.14-.05.2-2.38,3.17-6.06,4.32-7.71,4.32s-2.64-.83-2.64-2.24ZM171.3,24.76c0-.27-.15-.39-.53-.39-1.13,0-2.6,1.35-3.24,2.73,2.96-.56,3.77-1.88,3.77-2.34Z"/>
  </g>
  <path class="cls-4" d="M182.1,27.89c-.49,0-1-.04-1.51-.13-.14-.02-.23-.15-.2-.29.02-.14.14-.23.29-.21.66.11,1.29.15,1.94.11.13,0,.26.1.26.23,0,.14-.1.26-.23.27-.18.01-.36.02-.54.02ZM184.57,27.49c-.1,0-.2-.06-.24-.17-.04-.13.02-.27.15-.32.6-.21,1.18-.5,1.72-.87.11-.08.27-.05.35.06.08.11.05.27-.06.35-.58.4-1.2.71-1.84.93-.03,0-.05.01-.08.01ZM178.7,27.24s-.06,0-.09-.02c-1.12-.42-1.82-.88-1.85-.9-.12-.08-.15-.23-.07-.35.08-.12.23-.15.35-.07,0,0,.69.45,1.75.85.13.05.19.19.15.32-.04.1-.13.16-.23.16ZM187.79,26.06s-.02,0-.03,0c-.65-.09-1.32-.26-1.99-.51-.13-.05-.19-.19-.15-.32.05-.13.2-.19.32-.15.63.24,1.26.4,1.88.48.14.02.23.14.22.28-.02.13-.12.22-.25.22ZM189.78,26.02c-.12,0-.22-.08-.25-.2-.03-.14.06-.27.2-.29.65-.12,1.23-.37,1.73-.73.11-.08.27-.06.35.06.08.11.05.27-.06.35-.56.4-1.21.68-1.93.81-.02,0-.03,0-.05,0ZM187.86,25.27c-.06,0-.12-.02-.17-.07-.1-.09-.11-.25-.01-.35.47-.5.87-1.02,1.18-1.55.07-.12.23-.15.34-.08.12.07.16.23.08.34-.34.55-.75,1.1-1.24,1.62-.05.05-.12.08-.18.08ZM184.06,24.68s-.09-.01-.13-.04c-.61-.38-1.15-.81-1.61-1.27-.1-.1-.1-.26,0-.35.1-.1.26-.1.35,0,.44.44.95.84,1.52,1.2.12.07.15.23.08.34-.05.08-.13.12-.21.12ZM193,23.82c-.06,0-.11-.02-.16-.06-.11-.09-.12-.25-.04-.35.47-.57.86-1.11,1.16-1.59.07-.12.23-.15.34-.08.12.07.15.23.08.34-.31.5-.71,1.05-1.2,1.64-.05.06-.12.09-.19.09ZM189.88,21.86s-.04,0-.07,0c-.13-.04-.21-.17-.17-.31.14-.5.21-1.01.21-1.51,0-.13,0-.26-.01-.39-.01-.14.09-.26.23-.27.14,0,.26.09.27.23.01.14.02.28.02.43,0,.54-.08,1.09-.23,1.64-.03.11-.13.18-.24.18ZM181.34,21.83c-.1,0-.19-.06-.23-.15-.23-.52-.35-1.08-.35-1.65,0-.14,0-.28.02-.43.01-.14.12-.24.27-.22.14.01.24.14.22.27-.01.12-.02.25-.02.37,0,.51.1.99.31,1.45.06.13,0,.27-.13.33-.03.01-.07.02-.1.02ZM194.95,20.38s-.02,0-.03,0c-.14-.01-.24-.14-.22-.27,0-.03,0-.06,0-.08-.04-.13.04-.3.17-.34.13-.04.27.01.31.14,0,.02.02.08.02.19,0,.03,0,.08,0,.14-.01.13-.12.22-.25.22ZM181.65,17.99s-.09-.01-.12-.03c-.12-.07-.16-.22-.09-.34.34-.59.81-1.14,1.34-1.59.11-.09.26-.07.35.03s.08.26-.03.35c-.49.41-.91.91-1.23,1.46-.05.08-.13.12-.22.12ZM189.57,17.96c-.09,0-.18-.05-.22-.14-.28-.57-.67-1.1-1.13-1.51-.1-.09-.11-.25-.02-.35.09-.1.25-.11.35-.02.51.46.94,1.04,1.25,1.67.06.12,0,.27-.12.33-.03.02-.07.02-.11.02ZM184.67,15.5c-.11,0-.21-.07-.24-.17-.04-.13.03-.27.16-.31.42-.13.85-.2,1.26-.2h.13c.23.01.48.05.72.11.13.03.21.17.18.3-.04.13-.17.22-.3.18-.21-.05-.41-.08-.61-.09h-.11c-.36,0-.74.06-1.11.17-.03,0-.05.01-.08.01Z"/>
  <g>
    <path class="cls-2" d="M200.15,19.93s0,0,0,0c0,0,0,0,0,0,.19,1.34-.25,2.25-1.29,2.02-1.52-.33-.55-3.04.67-4,1.12-.88,4.83.74,3.87,2.51-.75,1.38-2.32,1.2-3.25-.53h0ZM196.47,15.74c-1.59-1.14-1.57-2.72-.11-3.29,1.87-.73,3.01,3.16,1.99,4.16-1.11,1.09-3.92,1.7-4.05.15-.09-1.06.87-1.38,2.17-1.02,0,0,0,0,0,0,0,0,0,0,0,0h0Z"/>
    <path class="cls-3" d="M200.7,15.27s0,0,0,0c.09.07.17.14.25.23.08.09.14.18.2.28,0,0,0,0,0,0,.58.04,1.3.17,2.19.43.04.01.07.04.1.07.07.08.1.16.11.24,0,.04-.01.08-.04.11-.03.02-.08.03-.12,0-.72-.33-1.43-.56-2.14-.63,0,0,0,0,0,0,0,0,0,0,0,0,.18.47.1.98-.24,1.28-.47.41-1.26.28-1.76-.29-.5-.57-.53-1.37-.06-1.79.34-.3.85-.31,1.3-.08,0,0,0,0,0,0,0,0,0,0,0,0,.01-.71-.12-1.45-.35-2.2-.01-.04,0-.08.02-.11.03-.03.07-.04.11-.03.08.02.15.06.23.14.03.03.05.07.05.11.14.92.19,1.64.15,2.23h0Z"/>
    <path class="cls-1" d="M200.01,16.35c1.58,1.8-1.38,5.07-2.97,3.31,0,0-.02-.01-.03-.01-.46.1-.91.02-1.34-.22,0,0-.01-.02-.01-.03,0,0,.01-.02.02-.02.35-.02.58-.17.68-.47,0-.01,0-.02,0-.03-1.55-1.8,2.08-4.32,3.66-2.52h0Z"/>
    <g class="cls-5">
      <path class="cls-3" d="M195.7,19.44s-.03-.01-.04-.02c0,0-.01-.02-.01-.03,0,0,.01-.02.02-.02.35-.02.58-.17.68-.47,0-.01,0-.02,0-.03-.46-.53-.46-1.12-.21-1.64.93.51,1.66,1.21,2.16,2.11.13.23.25.48.35.73-.56.19-1.14.11-1.61-.41,0,0-.02-.01-.03-.01-.45.1-.88.02-1.31-.2h0Z"/>
      <path class="cls-3" d="M200.23,18.53c-.14.32-.35.62-.59.88-.47-1.42-1.4-2.42-2.72-3.09.28-.21.6-.37.93-.48,1.07.65,1.87,1.54,2.38,2.68h0Z"/>
    </g>
  </g>
</svg>